<svg width="500" height="356" viewBox="0 0 500 356" fill="none" xmlns="http://www.w3.org/2000/svg">
<g clip-path="url(#clip0_80_5)">
<rect width="500" height="355.556" fill="#FBFCF8"/>
<mask id="path-1-inside-1_80_5" fill="white">
<ellipse cx="225.067" cy="337.942" rx="35.0476" ry="35.0575"/>
</mask>
<path d="M210.114 337.942C210.114 329.703 216.795 323 225.067 323V423C272.05 423 310.114 384.905 310.114 337.942H210.114ZM225.067 323C233.338 323 240.019 329.703 240.019 337.942H140.019C140.019 384.905 178.083 423 225.067 423V323ZM240.019 337.942C240.019 346.182 233.338 352.885 225.067 352.885V252.885C178.083 252.885 140.019 290.98 140.019 337.942H240.019ZM225.067 352.885C216.795 352.885 210.114 346.182 210.114 337.942H310.114C310.114 290.98 272.05 252.885 225.067 252.885V352.885Z" fill="#E045A7" mask="url(#path-1-inside-1_80_5)"/>
<path d="M-6 -113H284.654C321.097 -113 350.64 -83.457 350.64 -47.014C350.64 15.0147 300.356 65.2988 238.327 65.2988H-6V-113Z" stroke="black" stroke-width="4"/>
<path d="M362.103 44.1609C362.103 63.5226 346.411 79.2183 327.055 79.2183C307.699 79.2183 292.008 63.5226 292.008 44.1609C292.008 24.7992 307.699 9.10339 327.055 9.10339C346.411 9.10339 362.103 24.7992 362.103 44.1609Z" fill="#E045A7"/>
<path d="M362.103 44.1609C362.103 63.5226 346.411 79.2183 327.055 79.2183C307.699 79.2183 292.008 63.5226 292.008 44.1609C292.008 24.7992 307.699 9.10339 327.055 9.10339C346.411 9.10339 362.103 24.7992 362.103 44.1609Z" stroke="black"/>
<path d="M111.213 63.4689C111.213 85.695 92.1022 103.81 68.4038 103.81C44.7053 103.81 25.5942 85.695 25.5942 63.4689C25.5942 41.2428 44.7053 23.1276 68.4038 23.1276C92.1022 23.1276 111.213 41.2428 111.213 63.4689Z" fill="#FBFCF8" stroke="black" stroke-width="2"/>
<path d="M107.008 63.6343C107.008 83.5772 89.8579 99.8416 68.579 99.8416C47.3 99.8416 30.1504 83.5772 30.1504 63.6343C30.1504 43.6915 47.3 27.4271 68.579 27.4271C89.8579 27.4271 107.008 43.6915 107.008 63.6343Z" fill="#FBFCF8" stroke="black" stroke-width="2"/>
<path d="M102.452 63.4691C102.452 81.1287 87.2635 95.5422 68.4041 95.5422C49.5447 95.5422 34.3564 81.1287 34.3564 63.4691C34.3564 45.8094 49.5447 31.396 68.4041 31.396C87.2635 31.396 102.452 45.8094 102.452 63.4691Z" fill="#FBFCF8" stroke="black" stroke-width="2"/>
<mask id="path-8-inside-2_80_5" fill="white">
<path d="M24.5942 -52.9482H112.213V62.8076H24.5942V-52.9482Z"/>
</mask>
<path d="M24.5942 -52.9482H112.213V62.8076H24.5942V-52.9482Z" fill="#FBFCF8"/>
<path d="M110.213 -52.9482V62.8076H114.213V-52.9482H110.213ZM26.5942 62.8076V-52.9482H22.5942V62.8076H26.5942Z" fill="black" mask="url(#path-8-inside-2_80_5)"/>
<mask id="path-10-inside-3_80_5" fill="white">
<path d="M29.1504 -52.9482H108.008V62.8076H29.1504V-52.9482Z"/>
</mask>
<path d="M29.1504 -52.9482H108.008V62.8076H29.1504V-52.9482Z" fill="#FBFCF8"/>
<path d="M106.008 -52.9482V62.8076H110.008V-52.9482H106.008ZM31.1504 62.8076V-52.9482H27.1504V62.8076H31.1504Z" fill="black" mask="url(#path-10-inside-3_80_5)"/>
<mask id="path-12-inside-4_80_5" fill="white">
<path d="M33.3564 -52.9482H103.452V63.469H33.3564V-52.9482Z"/>
</mask>
<path d="M33.3564 -52.9482H103.452V63.469H33.3564V-52.9482Z" fill="#FBFCF8"/>
<path d="M101.452 -52.9482V63.469H105.452V-52.9482H101.452ZM35.3564 63.469V-52.9482H31.3564V63.469H35.3564Z" fill="black" mask="url(#path-12-inside-4_80_5)"/>
<rect x="-0.289551" y="-3.51721" width="56.0762" height="17.5287" fill="black"/>
<rect x="-0.289551" y="337.943" width="332.952" height="17.5287" fill="black"/>
<rect x="4.2666" y="280.799" width="52.5714" height="52.5862" fill="#3833A0"/>
<path d="M465.493 -0.362061H500.541V34.6954V34.6954C481.185 34.6954 465.493 18.9942 465.493 -0.362061V-0.362061Z" fill="#E045A7"/>
<rect x="88.3809" y="187.195" width="25.9352" height="105.874" rx="12.9676" fill="#E1D6D6"/>
<ellipse cx="11.9772" cy="264.672" rx="1.75238" ry="1.75287" fill="#E045A7"/>
<ellipse cx="11.9772" cy="259.414" rx="1.75238" ry="1.75287" fill="#E045A7"/>
<ellipse cx="11.9772" cy="254.155" rx="1.75238" ry="1.75287" fill="#E045A7"/>
<ellipse cx="11.9772" cy="248.897" rx="1.75238" ry="1.75287" fill="#E045A7"/>
<ellipse cx="17.2343" cy="264.672" rx="1.75238" ry="1.75287" fill="#E045A7"/>
<ellipse cx="17.2343" cy="259.414" rx="1.75238" ry="1.75287" fill="#E045A7"/>
<ellipse cx="17.2343" cy="254.155" rx="1.75238" ry="1.75287" fill="#E045A7"/>
<ellipse cx="17.2343" cy="248.897" rx="1.75238" ry="1.75287" fill="#E045A7"/>
<ellipse cx="22.4914" cy="264.672" rx="1.75238" ry="1.75287" fill="#E045A7"/>
<ellipse cx="22.4914" cy="259.414" rx="1.75238" ry="1.75287" fill="#E045A7"/>
<ellipse cx="22.4914" cy="254.155" rx="1.75238" ry="1.75287" fill="#E045A7"/>
<ellipse cx="22.4914" cy="248.897" rx="1.75238" ry="1.75287" fill="#E045A7"/>
<ellipse cx="27.7485" cy="264.672" rx="1.75238" ry="1.75287" fill="#E045A7"/>
<ellipse cx="27.7485" cy="259.414" rx="1.75238" ry="1.75287" fill="#E045A7"/>
<ellipse cx="27.7485" cy="254.155" rx="1.75238" ry="1.75287" fill="#E045A7"/>
<ellipse cx="27.7485" cy="248.897" rx="1.75238" ry="1.75287" fill="#E045A7"/>
<ellipse cx="33.0058" cy="264.672" rx="1.75238" ry="1.75287" fill="#E045A7"/>
<ellipse cx="33.0058" cy="259.414" rx="1.75238" ry="1.75287" fill="#E045A7"/>
<ellipse cx="33.0058" cy="254.155" rx="1.75238" ry="1.75287" fill="#E045A7"/>
<ellipse cx="33.0058" cy="248.897" rx="1.75238" ry="1.75287" fill="#E045A7"/>
<ellipse cx="38.2626" cy="264.672" rx="1.75238" ry="1.75287" fill="#E045A7"/>
<ellipse cx="38.2626" cy="259.414" rx="1.75238" ry="1.75287" fill="#E045A7"/>
<ellipse cx="38.2626" cy="254.155" rx="1.75238" ry="1.75287" fill="#E045A7"/>
<ellipse cx="38.2626" cy="248.897" rx="1.75238" ry="1.75287" fill="#E045A7"/>
<ellipse cx="11.9772" cy="243.638" rx="1.75238" ry="1.75287" fill="#E045A7"/>
<ellipse cx="11.9772" cy="238.379" rx="1.75238" ry="1.75287" fill="#E045A7"/>
<ellipse cx="11.9772" cy="233.121" rx="1.75238" ry="1.75287" fill="#E045A7"/>
<ellipse cx="11.9772" cy="227.862" rx="1.75238" ry="1.75287" fill="#E045A7"/>
<ellipse cx="17.2343" cy="243.638" rx="1.75238" ry="1.75287" fill="#E045A7"/>
<ellipse cx="17.2343" cy="238.379" rx="1.75238" ry="1.75287" fill="#E045A7"/>
<ellipse cx="17.2343" cy="233.121" rx="1.75238" ry="1.75287" fill="#E045A7"/>
<ellipse cx="17.2343" cy="227.862" rx="1.75238" ry="1.75287" fill="#E045A7"/>
<ellipse cx="22.4914" cy="243.638" rx="1.75238" ry="1.75287" fill="#E045A7"/>
<ellipse cx="22.4914" cy="238.379" rx="1.75238" ry="1.75287" fill="#E045A7"/>
<ellipse cx="22.4914" cy="233.121" rx="1.75238" ry="1.75287" fill="#E045A7"/>
<ellipse cx="22.4914" cy="227.862" rx="1.75238" ry="1.75287" fill="#E045A7"/>
<ellipse cx="27.7485" cy="243.638" rx="1.75238" ry="1.75287" fill="#E045A7"/>
<ellipse cx="27.7485" cy="238.379" rx="1.75238" ry="1.75287" fill="#E045A7"/>
<ellipse cx="27.7485" cy="233.121" rx="1.75238" ry="1.75287" fill="#E045A7"/>
<ellipse cx="27.7485" cy="227.862" rx="1.75238" ry="1.75287" fill="#E045A7"/>
<ellipse cx="33.0058" cy="243.638" rx="1.75238" ry="1.75287" fill="#E045A7"/>
<ellipse cx="33.0058" cy="238.379" rx="1.75238" ry="1.75287" fill="#E045A7"/>
<ellipse cx="33.0058" cy="233.121" rx="1.75238" ry="1.75287" fill="#E045A7"/>
<ellipse cx="33.0058" cy="227.862" rx="1.75238" ry="1.75287" fill="#E045A7"/>
<ellipse cx="38.2626" cy="243.638" rx="1.75238" ry="1.75287" fill="#E045A7"/>
<ellipse cx="38.2626" cy="238.379" rx="1.75238" ry="1.75287" fill="#E045A7"/>
<ellipse cx="38.2626" cy="233.121" rx="1.75238" ry="1.75287" fill="#E045A7"/>
<ellipse cx="38.2626" cy="227.862" rx="1.75238" ry="1.75287" fill="#E045A7"/>
<ellipse cx="43.52" cy="264.672" rx="1.75238" ry="1.75287" fill="#E045A7"/>
<ellipse cx="43.52" cy="259.414" rx="1.75238" ry="1.75287" fill="#E045A7"/>
<ellipse cx="43.52" cy="254.155" rx="1.75238" ry="1.75287" fill="#E045A7"/>
<ellipse cx="43.52" cy="248.897" rx="1.75238" ry="1.75287" fill="#E045A7"/>
<ellipse cx="48.7768" cy="264.672" rx="1.75238" ry="1.75287" fill="#E045A7"/>
<ellipse cx="48.7768" cy="259.414" rx="1.75238" ry="1.75287" fill="#E045A7"/>
<ellipse cx="48.7768" cy="254.155" rx="1.75238" ry="1.75287" fill="#E045A7"/>
<ellipse cx="48.7768" cy="248.897" rx="1.75238" ry="1.75287" fill="#E045A7"/>
<ellipse cx="54.0339" cy="264.672" rx="1.75238" ry="1.75287" fill="#E045A7"/>
<ellipse cx="54.0339" cy="259.414" rx="1.75238" ry="1.75287" fill="#E045A7"/>
<ellipse cx="54.0339" cy="254.155" rx="1.75238" ry="1.75287" fill="#E045A7"/>
<ellipse cx="54.0339" cy="248.897" rx="1.75238" ry="1.75287" fill="#E045A7"/>
<ellipse cx="59.2912" cy="264.672" rx="1.75238" ry="1.75287" fill="#E045A7"/>
<ellipse cx="59.2912" cy="259.414" rx="1.75238" ry="1.75287" fill="#E045A7"/>
<ellipse cx="59.2912" cy="254.155" rx="1.75238" ry="1.75287" fill="#E045A7"/>
<ellipse cx="59.2912" cy="248.897" rx="1.75238" ry="1.75287" fill="#E045A7"/>
<ellipse cx="64.5483" cy="264.672" rx="1.75238" ry="1.75287" fill="#E045A7"/>
<ellipse cx="64.5483" cy="259.414" rx="1.75238" ry="1.75287" fill="#E045A7"/>
<ellipse cx="64.5483" cy="254.155" rx="1.75238" ry="1.75287" fill="#E045A7"/>
<ellipse cx="64.5483" cy="248.897" rx="1.75238" ry="1.75287" fill="#E045A7"/>
<ellipse cx="69.8056" cy="264.672" rx="1.75238" ry="1.75287" fill="#E045A7"/>
<ellipse cx="69.8056" cy="259.414" rx="1.75238" ry="1.75287" fill="#E045A7"/>
<ellipse cx="69.8056" cy="254.155" rx="1.75238" ry="1.75287" fill="#E045A7"/>
<ellipse cx="69.8056" cy="248.897" rx="1.75238" ry="1.75287" fill="#E045A7"/>
<ellipse cx="43.52" cy="243.638" rx="1.75238" ry="1.75287" fill="#E045A7"/>
<ellipse cx="43.52" cy="238.379" rx="1.75238" ry="1.75287" fill="#E045A7"/>
<ellipse cx="43.52" cy="233.121" rx="1.75238" ry="1.75287" fill="#E045A7"/>
<ellipse cx="43.52" cy="227.862" rx="1.75238" ry="1.75287" fill="#E045A7"/>
<ellipse cx="48.7768" cy="243.638" rx="1.75238" ry="1.75287" fill="#E045A7"/>
<ellipse cx="48.7768" cy="238.379" rx="1.75238" ry="1.75287" fill="#E045A7"/>
<ellipse cx="48.7768" cy="233.121" rx="1.75238" ry="1.75287" fill="#E045A7"/>
<ellipse cx="48.7768" cy="227.862" rx="1.75238" ry="1.75287" fill="#E045A7"/>
<ellipse cx="54.0339" cy="243.638" rx="1.75238" ry="1.75287" fill="#E045A7"/>
<ellipse cx="54.0339" cy="238.379" rx="1.75238" ry="1.75287" fill="#E045A7"/>
<ellipse cx="54.0339" cy="233.121" rx="1.75238" ry="1.75287" fill="#E045A7"/>
<ellipse cx="54.0339" cy="227.862" rx="1.75238" ry="1.75287" fill="#E045A7"/>
<ellipse cx="59.2912" cy="243.638" rx="1.75238" ry="1.75287" fill="#E045A7"/>
<ellipse cx="59.2912" cy="238.379" rx="1.75238" ry="1.75287" fill="#E045A7"/>
<ellipse cx="59.2912" cy="233.121" rx="1.75238" ry="1.75287" fill="#E045A7"/>
<ellipse cx="59.2912" cy="227.862" rx="1.75238" ry="1.75287" fill="#E045A7"/>
<ellipse cx="64.5483" cy="243.638" rx="1.75238" ry="1.75287" fill="#E045A7"/>
<ellipse cx="64.5483" cy="238.379" rx="1.75238" ry="1.75287" fill="#E045A7"/>
<ellipse cx="64.5483" cy="233.121" rx="1.75238" ry="1.75287" fill="#E045A7"/>
<ellipse cx="64.5483" cy="227.862" rx="1.75238" ry="1.75287" fill="#E045A7"/>
<ellipse cx="69.8056" cy="243.638" rx="1.75238" ry="1.75287" fill="#E045A7"/>
<ellipse cx="69.8056" cy="238.379" rx="1.75238" ry="1.75287" fill="#E045A7"/>
<ellipse cx="69.8056" cy="233.121" rx="1.75238" ry="1.75287" fill="#E045A7"/>
<ellipse cx="69.8056" cy="227.862" rx="1.75238" ry="1.75287" fill="#E045A7"/>
<ellipse cx="75.0624" cy="264.672" rx="1.75238" ry="1.75287" fill="#E045A7"/>
<ellipse cx="75.0624" cy="259.414" rx="1.75238" ry="1.75287" fill="#E045A7"/>
<ellipse cx="75.0624" cy="254.155" rx="1.75238" ry="1.75287" fill="#E045A7"/>
<ellipse cx="75.0624" cy="248.897" rx="1.75238" ry="1.75287" fill="#E045A7"/>
<ellipse cx="80.3198" cy="264.672" rx="1.75238" ry="1.75287" fill="#E045A7"/>
<ellipse cx="80.3198" cy="259.414" rx="1.75238" ry="1.75287" fill="#E045A7"/>
<ellipse cx="80.3198" cy="254.155" rx="1.75238" ry="1.75287" fill="#E045A7"/>
<ellipse cx="80.3198" cy="248.897" rx="1.75238" ry="1.75287" fill="#E045A7"/>
<ellipse cx="85.5768" cy="264.672" rx="1.75238" ry="1.75287" fill="#E045A7"/>
<ellipse cx="85.5768" cy="259.414" rx="1.75238" ry="1.75287" fill="#E045A7"/>
<ellipse cx="85.5768" cy="254.155" rx="1.75238" ry="1.75287" fill="#E045A7"/>
<ellipse cx="85.5768" cy="248.897" rx="1.75238" ry="1.75287" fill="#E045A7"/>
<ellipse cx="75.0624" cy="243.638" rx="1.75238" ry="1.75287" fill="#E045A7"/>
<ellipse cx="75.0624" cy="238.379" rx="1.75238" ry="1.75287" fill="#E045A7"/>
<ellipse cx="75.0624" cy="233.121" rx="1.75238" ry="1.75287" fill="#E045A7"/>
<ellipse cx="75.0624" cy="227.862" rx="1.75238" ry="1.75287" fill="#E045A7"/>
<ellipse cx="80.3198" cy="243.638" rx="1.75238" ry="1.75287" fill="#E045A7"/>
<ellipse cx="80.3198" cy="238.379" rx="1.75238" ry="1.75287" fill="#E045A7"/>
<ellipse cx="80.3198" cy="233.121" rx="1.75238" ry="1.75287" fill="#E045A7"/>
<ellipse cx="80.3198" cy="227.862" rx="1.75238" ry="1.75287" fill="#E045A7"/>
<ellipse cx="85.5768" cy="243.638" rx="1.75238" ry="1.75287" fill="#E045A7"/>
<ellipse cx="85.5768" cy="238.379" rx="1.75238" ry="1.75287" fill="#E045A7"/>
<ellipse cx="85.5768" cy="233.121" rx="1.75238" ry="1.75287" fill="#E045A7"/>
<ellipse cx="85.5768" cy="227.862" rx="1.75238" ry="1.75287" fill="#E045A7"/>
<ellipse cx="90.8342" cy="264.672" rx="1.75238" ry="1.75287" fill="#E045A7"/>
<ellipse cx="90.8342" cy="259.414" rx="1.75238" ry="1.75287" fill="#E045A7"/>
<ellipse cx="90.8342" cy="254.155" rx="1.75238" ry="1.75287" fill="#E045A7"/>
<ellipse cx="90.8342" cy="248.897" rx="1.75238" ry="1.75287" fill="#E045A7"/>
<ellipse cx="96.0912" cy="264.672" rx="1.75238" ry="1.75287" fill="#E045A7"/>
<ellipse cx="96.0912" cy="259.414" rx="1.75238" ry="1.75287" fill="#E045A7"/>
<ellipse cx="96.0912" cy="254.155" rx="1.75238" ry="1.75287" fill="#E045A7"/>
<ellipse cx="96.0912" cy="248.897" rx="1.75238" ry="1.75287" fill="#E045A7"/>
<ellipse cx="101.348" cy="264.672" rx="1.75238" ry="1.75287" fill="#E045A7"/>
<ellipse cx="101.348" cy="259.414" rx="1.75238" ry="1.75287" fill="#E045A7"/>
<ellipse cx="101.348" cy="254.155" rx="1.75238" ry="1.75287" fill="#E045A7"/>
<ellipse cx="101.348" cy="248.897" rx="1.75238" ry="1.75287" fill="#E045A7"/>
<ellipse cx="106.605" cy="264.672" rx="1.75238" ry="1.75287" fill="#E045A7"/>
<ellipse cx="106.605" cy="259.414" rx="1.75238" ry="1.75287" fill="#E045A7"/>
<ellipse cx="106.605" cy="254.155" rx="1.75238" ry="1.75287" fill="#E045A7"/>
<ellipse cx="106.605" cy="248.897" rx="1.75238" ry="1.75287" fill="#E045A7"/>
<ellipse cx="111.863" cy="264.672" rx="1.75238" ry="1.75287" fill="#E045A7"/>
<ellipse cx="111.863" cy="259.414" rx="1.75238" ry="1.75287" fill="#E045A7"/>
<ellipse cx="111.863" cy="254.155" rx="1.75238" ry="1.75287" fill="#E045A7"/>
<ellipse cx="111.863" cy="248.897" rx="1.75238" ry="1.75287" fill="#E045A7"/>
<ellipse cx="117.12" cy="264.672" rx="1.75238" ry="1.75287" fill="#E045A7"/>
<ellipse cx="117.12" cy="259.414" rx="1.75238" ry="1.75287" fill="#E045A7"/>
<ellipse cx="117.12" cy="254.155" rx="1.75238" ry="1.75287" fill="#E045A7"/>
<ellipse cx="117.12" cy="248.897" rx="1.75238" ry="1.75287" fill="#E045A7"/>
<ellipse cx="90.8342" cy="243.638" rx="1.75238" ry="1.75287" fill="#E045A7"/>
<ellipse cx="90.8342" cy="238.379" rx="1.75238" ry="1.75287" fill="#E045A7"/>
<ellipse cx="90.8342" cy="233.121" rx="1.75238" ry="1.75287" fill="#E045A7"/>
<ellipse cx="90.8342" cy="227.862" rx="1.75238" ry="1.75287" fill="#E045A7"/>
<ellipse cx="96.0912" cy="243.638" rx="1.75238" ry="1.75287" fill="#E045A7"/>
<ellipse cx="96.0912" cy="238.379" rx="1.75238" ry="1.75287" fill="#E045A7"/>
<ellipse cx="96.0912" cy="233.121" rx="1.75238" ry="1.75287" fill="#E045A7"/>
<ellipse cx="96.0912" cy="227.862" rx="1.75238" ry="1.75287" fill="#E045A7"/>
<ellipse cx="101.348" cy="243.638" rx="1.75238" ry="1.75287" fill="#E045A7"/>
<ellipse cx="101.348" cy="238.379" rx="1.75238" ry="1.75287" fill="#E045A7"/>
<ellipse cx="101.348" cy="233.121" rx="1.75238" ry="1.75287" fill="#E045A7"/>
<ellipse cx="101.348" cy="227.862" rx="1.75238" ry="1.75287" fill="#E045A7"/>
<ellipse cx="106.605" cy="243.638" rx="1.75238" ry="1.75287" fill="#E045A7"/>
<ellipse cx="106.605" cy="238.379" rx="1.75238" ry="1.75287" fill="#E045A7"/>
<ellipse cx="106.605" cy="233.121" rx="1.75238" ry="1.75287" fill="#E045A7"/>
<ellipse cx="106.605" cy="227.862" rx="1.75238" ry="1.75287" fill="#E045A7"/>
<ellipse cx="111.863" cy="243.638" rx="1.75238" ry="1.75287" fill="#E045A7"/>
<ellipse cx="111.863" cy="238.379" rx="1.75238" ry="1.75287" fill="#E045A7"/>
<ellipse cx="111.863" cy="233.121" rx="1.75238" ry="1.75287" fill="#E045A7"/>
<ellipse cx="111.863" cy="227.862" rx="1.75238" ry="1.75287" fill="#E045A7"/>
<ellipse cx="117.12" cy="243.638" rx="1.75238" ry="1.75287" fill="#E045A7"/>
<ellipse cx="117.12" cy="238.379" rx="1.75238" ry="1.75287" fill="#E045A7"/>
<ellipse cx="117.12" cy="233.121" rx="1.75238" ry="1.75287" fill="#E045A7"/>
<ellipse cx="117.12" cy="227.862" rx="1.75238" ry="1.75287" fill="#E045A7"/>
<ellipse cx="11.9772" cy="222.603" rx="1.75238" ry="1.75287" fill="#E045A7"/>
<ellipse cx="11.9772" cy="217.345" rx="1.75238" ry="1.75287" fill="#E045A7"/>
<ellipse cx="11.9772" cy="212.086" rx="1.75238" ry="1.75287" fill="#E045A7"/>
<ellipse cx="17.2343" cy="222.603" rx="1.75238" ry="1.75287" fill="#E045A7"/>
<ellipse cx="17.2343" cy="217.345" rx="1.75238" ry="1.75287" fill="#E045A7"/>
<ellipse cx="17.2343" cy="212.086" rx="1.75238" ry="1.75287" fill="#E045A7"/>
<ellipse cx="22.4914" cy="222.603" rx="1.75238" ry="1.75287" fill="#E045A7"/>
<ellipse cx="22.4914" cy="217.345" rx="1.75238" ry="1.75287" fill="#E045A7"/>
<ellipse cx="22.4914" cy="212.086" rx="1.75238" ry="1.75287" fill="#E045A7"/>
<ellipse cx="27.7485" cy="222.603" rx="1.75238" ry="1.75287" fill="#E045A7"/>
<ellipse cx="27.7485" cy="217.345" rx="1.75238" ry="1.75287" fill="#E045A7"/>
<ellipse cx="27.7485" cy="212.086" rx="1.75238" ry="1.75287" fill="#E045A7"/>
<ellipse cx="33.0058" cy="222.603" rx="1.75238" ry="1.75287" fill="#E045A7"/>
<ellipse cx="33.0058" cy="217.345" rx="1.75238" ry="1.75287" fill="#E045A7"/>
<ellipse cx="33.0058" cy="212.086" rx="1.75238" ry="1.75287" fill="#E045A7"/>
<ellipse cx="38.2626" cy="222.603" rx="1.75238" ry="1.75287" fill="#E045A7"/>
<ellipse cx="38.2626" cy="217.345" rx="1.75238" ry="1.75287" fill="#E045A7"/>
<ellipse cx="38.2626" cy="212.086" rx="1.75238" ry="1.75287" fill="#E045A7"/>
<ellipse cx="43.52" cy="222.603" rx="1.75238" ry="1.75287" fill="#E045A7"/>
<ellipse cx="43.52" cy="217.345" rx="1.75238" ry="1.75287" fill="#E045A7"/>
<ellipse cx="43.52" cy="212.086" rx="1.75238" ry="1.75287" fill="#E045A7"/>
<ellipse cx="48.7768" cy="222.603" rx="1.75238" ry="1.75287" fill="#E045A7"/>
<ellipse cx="48.7768" cy="217.345" rx="1.75238" ry="1.75287" fill="#E045A7"/>
<ellipse cx="48.7768" cy="212.086" rx="1.75238" ry="1.75287" fill="#E045A7"/>
<ellipse cx="54.0339" cy="222.603" rx="1.75238" ry="1.75287" fill="#E045A7"/>
<ellipse cx="54.0339" cy="217.345" rx="1.75238" ry="1.75287" fill="#E045A7"/>
<ellipse cx="54.0339" cy="212.086" rx="1.75238" ry="1.75287" fill="#E045A7"/>
<ellipse cx="59.2912" cy="222.603" rx="1.75238" ry="1.75287" fill="#E045A7"/>
<ellipse cx="59.2912" cy="217.345" rx="1.75238" ry="1.75287" fill="#E045A7"/>
<ellipse cx="59.2912" cy="212.086" rx="1.75238" ry="1.75287" fill="#E045A7"/>
<ellipse cx="64.5483" cy="222.603" rx="1.75238" ry="1.75287" fill="#E045A7"/>
<ellipse cx="64.5483" cy="217.345" rx="1.75238" ry="1.75287" fill="#E045A7"/>
<ellipse cx="64.5483" cy="212.086" rx="1.75238" ry="1.75287" fill="#E045A7"/>
<ellipse cx="69.8056" cy="222.603" rx="1.75238" ry="1.75287" fill="#E045A7"/>
<ellipse cx="69.8056" cy="217.345" rx="1.75238" ry="1.75287" fill="#E045A7"/>
<ellipse cx="69.8056" cy="212.086" rx="1.75238" ry="1.75287" fill="#E045A7"/>
<ellipse cx="75.0624" cy="222.603" rx="1.75238" ry="1.75287" fill="#E045A7"/>
<ellipse cx="75.0624" cy="217.345" rx="1.75238" ry="1.75287" fill="#E045A7"/>
<ellipse cx="75.0624" cy="212.086" rx="1.75238" ry="1.75287" fill="#E045A7"/>
<ellipse cx="80.3198" cy="222.603" rx="1.75238" ry="1.75287" fill="#E045A7"/>
<ellipse cx="80.3198" cy="217.345" rx="1.75238" ry="1.75287" fill="#E045A7"/>
<ellipse cx="80.3198" cy="212.086" rx="1.75238" ry="1.75287" fill="#E045A7"/>
<ellipse cx="85.5768" cy="222.603" rx="1.75238" ry="1.75287" fill="#E045A7"/>
<ellipse cx="85.5768" cy="217.345" rx="1.75238" ry="1.75287" fill="#E045A7"/>
<ellipse cx="85.5768" cy="212.086" rx="1.75238" ry="1.75287" fill="#E045A7"/>
<ellipse cx="90.8342" cy="222.603" rx="1.75238" ry="1.75287" fill="#E045A7"/>
<ellipse cx="90.8342" cy="217.345" rx="1.75238" ry="1.75287" fill="#E045A7"/>
<ellipse cx="90.8342" cy="212.086" rx="1.75238" ry="1.75287" fill="#E045A7"/>
<ellipse cx="96.0912" cy="222.603" rx="1.75238" ry="1.75287" fill="#E045A7"/>
<ellipse cx="96.0912" cy="217.345" rx="1.75238" ry="1.75287" fill="#E045A7"/>
<ellipse cx="96.0912" cy="212.086" rx="1.75238" ry="1.75287" fill="#E045A7"/>
<ellipse cx="101.348" cy="222.603" rx="1.75238" ry="1.75287" fill="#E045A7"/>
<ellipse cx="101.348" cy="217.345" rx="1.75238" ry="1.75287" fill="#E045A7"/>
<ellipse cx="101.348" cy="212.086" rx="1.75238" ry="1.75287" fill="#E045A7"/>
<ellipse cx="106.605" cy="222.603" rx="1.75238" ry="1.75287" fill="#E045A7"/>
<ellipse cx="106.605" cy="217.345" rx="1.75238" ry="1.75287" fill="#E045A7"/>
<ellipse cx="106.605" cy="212.086" rx="1.75238" ry="1.75287" fill="#E045A7"/>
<ellipse cx="111.863" cy="222.603" rx="1.75238" ry="1.75287" fill="#E045A7"/>
<ellipse cx="111.863" cy="217.345" rx="1.75238" ry="1.75287" fill="#E045A7"/>
<ellipse cx="111.863" cy="212.086" rx="1.75238" ry="1.75287" fill="#E045A7"/>
<ellipse cx="117.12" cy="222.603" rx="1.75238" ry="1.75287" fill="#E045A7"/>
<ellipse cx="117.12" cy="217.345" rx="1.75238" ry="1.75287" fill="#E045A7"/>
<ellipse cx="117.12" cy="212.086" rx="1.75238" ry="1.75287" fill="#E045A7"/>
<path d="M542 223.655C542 280.636 495.821 326.827 438.857 326.827C381.893 326.827 335.714 280.636 335.714 223.655C335.714 166.674 381.893 120.483 438.857 120.483C495.821 120.483 542 166.674 542 223.655Z" stroke="black" stroke-width="4"/>
<path d="M360.357 292.796L399.43 298.289L375.138 329.391L360.357 292.796Z" fill="#3833A0"/>
<rect x="445.614" y="-7.62659" width="61.1371" height="189.466" stroke="black" stroke-width="3" stroke-dasharray="15 15"/>
</g>
<defs>
<clipPath id="clip0_80_5">
<rect width="500" height="355.556" fill="white"/>
</clipPath>
</defs>
</svg>
